<svg width="24" height="24" viewBox="0 0 24 24" fill="none" xmlns="http://www.w3.org/2000/svg">
<path d="M10.0703 20.5029C10.0703 20.3563 10.038 20.2114 9.97576 20.0786C9.91352 19.9458 9.82283 19.8283 9.71012 19.7345C9.59741 19.6407 9.46545 19.5728 9.32357 19.5356C9.1817 19.4984 9.03339 19.493 8.88916 19.5195C7.58008 19.7597 5.92725 19.7959 5.48779 18.5615C5.10459 17.6055 4.46986 16.771 3.65088 16.1465C3.59244 16.1147 3.53675 16.0781 3.48438 16.0371C3.4127 15.8481 3.28539 15.6852 3.11924 15.5699C2.95309 15.4547 2.75591 15.3925 2.55371 15.3916H2.54883C2.28443 15.3915 2.03075 15.4962 1.84334 15.6827C1.65592 15.8692 1.55003 16.1223 1.54883 16.3867C1.54492 17.2022 2.35983 17.7246 2.69043 17.9014C3.08027 18.2931 3.39358 18.7541 3.61426 19.2608C3.97852 20.2842 5.03711 21.8369 8.08008 21.6368C8.08108 21.6719 8.08203 21.7051 8.08252 21.7354L8.08691 22.003C8.08691 22.2682 8.19226 22.5225 8.3798 22.7101C8.56734 22.8976 8.82169 23.003 9.08691 23.003C9.35212 23.003 9.60648 22.8976 9.79401 22.7101C9.98155 22.5225 10.0869 22.2682 10.0869 22.003L10.082 21.6846C10.0771 21.4951 10.0703 21.2207 10.0703 20.5029ZM20.7373 5.37691C20.769 5.25191 20.8003 5.11324 20.8276 4.95699C20.9894 3.84258 20.8484 2.70518 20.4194 1.66399C20.3653 1.52825 20.2822 1.40599 20.1758 1.30579C20.0694 1.20559 19.9424 1.12986 19.8037 1.08392C19.4477 0.963798 18.1333 0.727468 15.6196 2.33392C13.5302 1.84221 11.3551 1.84221 9.26564 2.33392C6.76221 0.750998 5.45459 0.965798 5.10205 1.07908C4.95991 1.12316 4.82944 1.19848 4.7202 1.29954C4.61095 1.40059 4.5257 1.5248 4.4707 1.66308C4.033 2.72426 3.89354 3.88485 4.06738 5.01952C4.0918 5.14745 4.11816 5.26562 4.14551 5.37401C3.31708 6.47745 2.87582 7.82337 2.89014 9.20311C2.88744 9.51094 2.90162 9.8187 2.93262 10.125C3.26662 14.7275 6.26662 16.1094 8.35693 16.584C8.31348 16.709 8.27393 16.8428 8.23877 16.9844C8.17611 17.2417 8.21804 17.5133 8.35537 17.7397C8.49269 17.9662 8.71421 18.1289 8.97134 18.1922C9.22847 18.2556 9.50022 18.2144 9.72701 18.0776C9.9538 17.9409 10.1171 17.7198 10.1811 17.4629C10.2448 17.1297 10.4079 16.8236 10.6489 16.5849C10.7947 16.4573 10.9002 16.2901 10.9527 16.1036C11.0051 15.9172 11.0023 15.7194 10.9445 15.5346C10.8866 15.3497 10.7763 15.1856 10.6269 15.0622C10.4775 14.9389 10.2955 14.8616 10.103 14.8398C6.64893 14.4453 5.14941 13.0381 4.92383 9.9414C4.89884 9.69613 4.88759 9.44965 4.89014 9.20312C4.87409 8.21977 5.19897 7.2612 5.80957 6.49023C5.87092 6.40985 5.93627 6.3326 6.00537 6.25878C6.1278 6.12178 6.21012 5.9537 6.24328 5.77298C6.27644 5.59227 6.25917 5.40591 6.19337 5.23437C6.1259 5.0539 6.07396 4.868 6.0381 4.6787C5.95663 4.14041 5.98335 3.59129 6.1167 3.06346C6.98583 3.30893 7.80381 3.7085 8.5317 4.24314C8.65207 4.32331 8.78827 4.37667 8.93107 4.39958C9.07387 4.4225 9.21992 4.41444 9.35934 4.37596C11.3804 3.82746 13.5113 3.8278 15.5322 4.37696C15.6724 4.4154 15.8192 4.423 15.9626 4.39923C16.106 4.37545 16.2425 4.32088 16.3627 4.23927C17.0872 3.70241 17.9018 3.29926 18.768 3.04884C18.9008 3.56399 18.9305 4.10029 18.8554 4.62696C18.8192 4.83449 18.7626 5.03796 18.6865 5.23439C18.6207 5.40593 18.6034 5.59229 18.6366 5.773C18.6697 5.95372 18.752 6.1218 18.8745 6.2588C18.9516 6.34571 19.0288 6.43946 19.0981 6.52735C19.7044 7.28527 20.0238 8.23282 20 9.20311C20.0018 9.46272 19.9893 9.72223 19.9624 9.98045C19.7422 13.0361 18.2368 14.4443 14.7666 14.8398C14.5741 14.8617 14.392 14.9391 14.2427 15.0626C14.0933 15.1861 13.983 15.3503 13.9252 15.5352C13.8675 15.7202 13.8647 15.918 13.9172 16.1045C13.9698 16.2911 14.0754 16.4583 14.2212 16.5859C14.4698 16.8309 14.6333 17.1493 14.6875 17.4941C14.7551 17.7618 14.7861 18.0374 14.7798 18.3135V20.6475C14.77 21.2949 14.77 21.7802 14.77 22.0029C14.77 22.2681 14.8754 22.5225 15.0629 22.71C15.2504 22.8976 15.5048 23.0029 15.77 23.0029C16.0352 23.0029 16.2896 22.8976 16.4771 22.71C16.6646 22.5225 16.77 22.2681 16.77 22.0029C16.77 21.7861 16.77 21.3105 16.7798 20.6631V18.3135C16.7878 17.8713 16.7357 17.4301 16.625 17.0019C16.5933 16.8614 16.5545 16.7225 16.5088 16.5859C18.03 16.3332 19.4122 15.5489 20.4094 14.3725C21.4065 13.1962 21.9539 11.7042 21.9541 10.1621C21.987 9.84352 22.0024 9.52337 22 9.20311C22.0222 7.82188 21.5773 6.47363 20.7373 5.37693L20.7373 5.37691Z" fill="black"/>
</svg>
