<svg width="21" height="17" viewBox="0 0 21 17" fill="none" xmlns="http://www.w3.org/2000/svg">
<path d="M20.3573 2.60208C20.8333 4.45833 20.8333 8.33333 20.8333 8.33333C20.8333 8.33333 20.8333 12.2083 20.3573 14.0646C20.0927 15.0906 19.3187 15.8979 18.3385 16.1708C16.5583 16.6667 10.4167 16.6667 10.4167 16.6667C10.4167 16.6667 4.27812 16.6667 2.49479 16.1708C1.51042 15.8937 0.7375 15.0875 0.476042 14.0646C3.10441e-08 12.2083 0 8.33333 0 8.33333C0 8.33333 3.10441e-08 4.45833 0.476042 2.60208C0.740625 1.57604 1.51458 0.76875 2.49479 0.495833C4.27812 -1.86265e-07 10.4167 0 10.4167 0C10.4167 0 16.5583 -1.86265e-07 18.3385 0.495833C19.3229 0.772916 20.0958 1.57917 20.3573 2.60208ZM8.33333 11.9792L14.5833 8.33333L8.33333 4.6875V11.9792Z" fill="black"/>
</svg>
